<svg version="1.1" id="Layer_1" xmlns="http://www.w3.org/2000/svg" xmlns:xlink="http://www.w3.org/1999/xlink" x="0px" y="0px"
	 width="100%" viewBox="0 0 1024 1024" enable-background="new 0 0 1024 1024" xml:space="preserve">
<path fill="#000000" opacity="1.000000" stroke="none" 
	d="
M555.916870,690.087769 
	C531.465637,690.568420 507.503662,691.335266 483.538757,691.441345 
	C450.399048,691.588074 417.253326,691.492554 384.117828,690.992554 
	C367.322815,690.739258 350.551971,689.170227 333.756927,688.560425 
	C314.144287,687.848206 294.521698,687.404053 275.001648,685.192322 
	C267.838898,684.380737 261.054382,682.085999 254.469879,679.214233 
	C243.407639,674.389771 241.392487,663.971436 240.293549,653.968384 
	C237.206558,625.868835 236.188293,597.633728 235.483368,569.354431 
	C234.787079,541.421692 234.627258,513.499207 234.988068,485.583313 
	C235.252197,465.147064 236.326263,444.716095 238.375717,424.326904 
	C239.442047,413.718475 240.947556,403.242249 242.689011,392.747742 
	C244.659149,380.875244 252.172165,374.917114 263.143372,372.378296 
	C269.963806,370.799988 276.921722,370.154022 283.915222,369.653168 
	C314.982971,367.428192 346.111908,368.188751 377.206268,367.418610 
	C416.172119,366.453461 455.129547,366.617249 494.088379,366.842773 
	C516.027893,366.969788 537.985413,367.614655 559.892151,368.808411 
	C584.427307,370.145447 609.004517,371.388306 633.294067,375.579376 
	C639.914307,376.721680 646.050354,379.328369 652.276855,381.645905 
	C655.996155,383.030243 657.716064,386.391083 659.258240,389.759766 
	C664.644958,401.526306 665.695862,414.129822 666.350525,426.805481 
	C666.899353,437.433624 667.373474,448.066345 668.038086,458.687195 
	C668.182983,461.000854 666.910828,464.613678 670.018188,465.225403 
	C673.773865,465.964722 678.100159,466.597046 681.524292,463.752655 
	C694.081421,453.321838 706.798828,443.088318 720.441162,434.108582 
	C736.963440,423.233124 752.568115,410.834229 771.055542,403.162567 
	C781.369995,398.882416 783.598694,400.196747 785.491577,411.415100 
	C787.882263,425.583527 787.485596,439.921692 788.147827,454.187653 
	C789.220825,477.302917 790.012634,500.432709 790.745850,523.561951 
	C791.642578,551.846375 789.891357,580.063538 788.329956,608.284729 
	C787.695557,619.752136 786.951233,631.212646 785.116943,642.547363 
	C783.859375,650.318420 781.088745,651.861450 773.610107,649.191101 
	C756.849854,643.206726 741.902405,633.763611 727.094360,624.142761 
	C714.124329,615.715942 701.383301,606.937073 688.450378,598.452087 
	C684.474854,595.843811 681.741516,590.943420 675.579346,592.138184 
	C672.522705,592.730835 671.123657,593.581970 671.151245,596.734558 
	C671.244507,607.388611 671.067078,618.033752 670.334900,628.674561 
	C669.582214,639.613403 669.023376,650.568787 665.976501,661.181030 
	C662.672913,672.687317 654.627075,679.316589 643.370911,682.197021 
	C627.927734,686.148865 611.994751,685.766907 596.257751,687.079712 
	C582.982422,688.187256 569.689880,689.087341 555.916870,690.087769 
M301.587830,380.263550 
	C289.939087,380.689148 278.257568,381.232269 266.833740,383.500977 
	C261.805054,384.499664 256.141327,385.511841 254.609818,392.587555 
	C252.317993,403.176025 251.084457,413.847107 249.887360,424.583527 
	C247.172577,448.931335 246.318237,473.348877 246.215988,497.813293 
	C246.069901,532.771118 246.054550,567.720520 247.823593,602.658020 
	C248.698883,619.944641 249.752625,637.210938 251.517761,654.417236 
	C252.588989,664.859558 257.326996,668.842468 267.352875,671.637573 
	C283.792267,676.220642 300.657715,675.540894 317.373352,676.598145 
	C334.144165,677.658936 350.974091,677.797913 367.740967,678.904175 
	C391.344055,680.461426 414.998230,680.178284 438.589874,680.196594 
	C460.869232,680.213928 483.179016,680.230835 505.472229,679.899902 
	C517.790222,679.716919 530.130005,680.028320 542.423523,679.401855 
	C560.009583,678.505676 577.576294,677.119263 595.124939,675.631714 
	C609.186768,674.439758 623.342712,674.349670 637.286011,671.658569 
	C649.966675,669.211060 654.211731,664.699097 656.560608,650.416687 
	C659.427063,632.987610 659.660400,615.323181 659.654480,597.681030 
	C659.649658,583.265625 661.867188,580.864441 676.377258,580.704956 
	C680.608215,580.658508 681.875427,579.201416 681.726196,575.156982 
	C681.333313,564.514587 681.136963,553.862244 681.039917,543.212219 
	C680.852112,522.589783 680.738708,501.966217 680.717773,481.342957 
	C680.714417,478.032806 679.383789,476.992584 676.235779,477.010132 
	C672.586853,477.030518 668.919861,476.731873 665.289062,476.321747 
	C660.973450,475.834320 658.455872,473.312744 657.662720,468.988159 
	C656.365784,461.916077 656.163513,454.737762 655.962769,447.607178 
	C655.547058,432.839172 655.015808,418.109924 651.820007,403.620453 
	C649.433960,392.802826 645.165710,388.790710 633.978149,387.433197 
	C618.978271,385.613129 604.069214,383.207245 588.959290,382.067871 
	C563.893127,380.177795 538.801392,379.029785 513.692810,378.586853 
	C483.581604,378.055756 453.456482,378.091858 423.338684,378.210815 
	C383.070709,378.369843 342.796906,378.425873 301.587830,380.263550 
M756.284302,423.838867 
	C736.139526,436.540649 716.595093,450.068512 697.709717,464.615387 
	C692.294128,468.786835 690.844849,472.539185 690.965759,479.291565 
	C691.585205,513.898193 691.393127,548.519165 692.235352,583.129089 
	C692.314453,586.378601 693.593689,588.318726 696.203247,590.004761 
	C701.793457,593.616760 707.183167,597.537842 712.743713,601.197327 
	C731.230591,613.363770 749.351868,626.133118 769.534546,635.508301 
	C772.953247,637.096375 774.484985,636.979492 774.958435,632.610291 
	C777.738892,606.947693 778.828369,581.175903 779.551270,555.412964 
	C780.616272,517.459229 778.036438,479.562286 776.591797,441.652771 
	C776.338379,435.001678 776.029358,428.348145 775.526733,421.712341 
	C774.984985,414.559418 773.916199,413.992401 767.745667,417.284912 
	C764.077209,419.242340 760.501587,421.373810 756.284302,423.838867 
z"/>
<path fill="#000000" opacity="1.000000" stroke="none" 
	d="
M438.868683,618.020081 
	C432.751190,619.551819 430.211914,617.877747 429.662628,611.646667 
	C427.966492,592.406128 427.648712,573.110168 427.713593,553.804749 
	C427.811554,524.667664 427.848846,495.530273 428.017853,466.393616 
	C428.050598,460.748596 428.422729,455.093964 428.904053,449.466461 
	C429.382935,443.867188 431.995605,442.159607 437.381256,443.984741 
	C445.316406,446.673889 452.360260,451.212494 459.553253,455.366943 
	C495.436310,476.091675 530.903870,497.503479 565.613281,520.151367 
	C567.977844,521.694275 570.284485,523.368286 572.420471,525.210388 
	C576.810730,528.996643 576.801636,532.090088 571.871704,535.764221 
	C563.336670,542.125122 554.611389,548.237549 545.852417,554.289795 
	C513.649597,576.541382 479.921265,596.294861 445.679779,615.196167 
	C443.654510,616.314087 441.389191,616.997131 438.868683,618.020081 
M502.049835,492.506042 
	C481.154327,480.268616 460.258820,468.031219 438.492706,455.283905 
	C438.221619,505.860046 437.854736,555.371704 440.004364,605.844360 
	C482.316315,582.114380 523.143372,558.559021 561.785583,529.742310 
	C541.792542,517.283203 522.229004,505.091644 502.049835,492.506042 
z"/>
<path fill="#000000" opacity="1.000000" stroke="none" 
	d="
M299.488403,409.488098 
	C319.054260,402.719574 333.887360,419.581055 330.914154,437.512360 
	C329.768036,444.424377 324.661163,449.707428 318.370667,452.797913 
	C309.006348,457.398529 299.129913,457.257233 290.001587,452.346832 
	C281.828247,447.950104 279.495972,439.866486 279.735077,431.076233 
	C280.057251,419.230560 288.176147,410.332794 299.488403,409.488098 
M295.148926,422.580048 
	C290.411713,426.833099 290.101715,432.342346 291.873352,437.720856 
	C293.536926,442.771240 298.363922,444.118225 303.211212,444.349762 
	C305.486877,444.458466 307.828033,443.896942 310.092133,443.416046 
	C316.978516,441.953339 320.044678,438.147125 319.729706,431.650299 
	C319.410004,425.055786 315.128784,420.178619 308.734802,419.464050 
	C304.173676,418.954285 299.807312,419.838623 295.148926,422.580048 
z"/>
</svg>