<svg version="1.1" id="Layer_1" xmlns="http://www.w3.org/2000/svg" xmlns:xlink="http://www.w3.org/1999/xlink" x="0px" y="0px"
	 width="100%" viewBox="0 0 1024 1024" enable-background="new 0 0 1024 1024" xml:space="preserve">
<path fill="none" opacity="1.000000" stroke="#000000" stroke-linecap="round" stroke-linejoin="round" stroke-width="10.000000"
	d="
M823.500000,451.500000 
	C818.009277,451.006134 813.671753,449.589081 810.221436,444.177612 
	C806.832825,438.862762 801.441895,434.665741 796.452332,430.557922 
	C774.900146,412.814056 754.389099,393.851654 732.556335,376.429382 
	C719.251099,365.811920 706.861816,354.031525 693.397034,343.633362 
	C680.243591,333.475616 667.575562,322.739410 654.539490,312.449982 
	C643.017517,303.355621 632.065002,293.532654 620.440735,284.576935 
	C606.258362,273.650330 592.637573,261.986664 579.244385,250.221786 
	C559.198486,232.613052 538.464844,215.770325 519.013916,197.485229 
	C510.049072,189.057770 510.135223,189.009964 500.496307,196.495255 
	C476.746979,214.938263 453.788330,234.305405 431.431122,254.423447 
	C417.636292,266.836670 402.675446,277.975189 389.137848,290.647247 
	C375.533630,303.381622 360.423981,314.207947 346.298584,326.264038 
	C335.420593,335.548431 324.763428,345.138153 313.687531,354.228485 
	C304.234619,361.986786 295.289368,370.515656 285.850433,378.319092 
	C277.091034,385.560791 268.392090,393.003296 259.839233,400.392639 
	C249.867645,409.007812 239.163910,416.878265 229.883057,426.385834 
	C224.219925,432.187347 217.424652,436.873810 211.425629,442.419556 
	C208.473145,445.148956 205.971237,447.964142 203.864822,451.417542 
	C202.186111,454.169708 198.797882,455.014008 195.500290,454.975128 
	C194.165192,454.959412 192.833328,454.666656 191.500000,454.500000 
"/>
<path fill="none" opacity="1.000000" stroke="#000000" stroke-linecap="round" stroke-linejoin="round" stroke-width="10.000000"
	d="
M762.500000,455.000000 
	C762.434998,505.833344 763.599792,556.666687 762.500000,607.500000 
"/>
<path fill="none" opacity="1.000000" stroke="#000000" stroke-linecap="round" stroke-linejoin="round" stroke-width="10.000000"
	d="
M561.500000,833.500000 
	C561.500000,822.000000 561.690063,810.496094 561.452332,799.000977 
	C561.148926,784.330261 559.937988,769.656311 560.207703,755.003845 
	C560.373413,746.003906 560.186096,736.999329 560.413513,727.997803 
	C560.640686,719.007751 560.065735,710.000366 560.035461,700.999878 
	C560.015259,695.000488 560.466858,688.999939 560.463440,683.000000 
	C560.459839,676.666626 560.004333,670.331909 560.058838,664.000488 
	C560.093262,659.996582 558.073608,658.189514 554.498169,658.045776 
	C546.670776,657.731262 538.815552,657.272217 531.005554,657.623779 
	C524.664001,657.909302 518.342224,657.476624 511.989380,657.770569 
	C503.866455,658.146362 495.676147,657.707764 487.497375,657.852295 
	C478.975952,658.002991 470.502136,658.817200 461.999084,658.934753 
	C457.964508,658.990540 457.098206,660.942261 456.941681,664.497437 
	C456.163818,682.162720 456.702484,699.833984 456.450470,717.499268 
	C456.405212,720.670959 457.852722,723.833313 456.500000,727.000000 
"/>
<path fill="none" opacity="1.000000" stroke="#000000" stroke-linecap="round" stroke-linejoin="round" stroke-width="11.000000"
	d="
M761.000000,607.500000 
	C763.759277,607.370361 762.487854,609.542603 762.424255,610.494934 
	C761.433777,625.325012 762.148254,640.166931 762.034180,655.000244 
	C761.891846,673.499084 762.000000,691.999817 762.000000,710.500000 
	C762.833313,710.500000 764.166687,710.500000 765.500000,710.500000 
"/>
<path fill="none" opacity="1.000000" stroke="#000000" stroke-linecap="round" stroke-linejoin="round" stroke-width="10.000000"
	d="
M614.500000,535.500000 
	C610.889771,535.588074 607.321655,535.897034 603.956299,537.438904 
	C602.995117,543.290039 602.534973,549.129944 602.509277,555.000061 
	C602.472778,563.333191 602.170288,571.682678 602.573242,579.996460 
	C603.268066,594.333374 601.713989,608.665100 602.753418,623.017883 
	C602.918396,625.295105 603.222778,627.917419 602.757690,630.545593 
	C602.082764,634.359924 605.732300,637.264343 610.000549,637.489014 
	C624.992493,638.278259 640.015503,638.018738 654.990723,638.381958 
	C669.559570,638.735413 683.996460,636.948120 698.497498,637.559021 
	C702.389465,637.723083 704.423767,636.275940 705.006470,632.500977 
	C707.158630,618.558044 707.054932,604.470703 706.219543,590.516785 
	C705.767334,582.963867 707.287354,575.570068 706.208984,567.970337 
	C704.973816,559.265015 705.460754,550.325928 704.949036,541.502930 
	C704.672180,536.728638 702.079407,534.676636 697.501221,534.472778 
	C688.330444,534.064453 679.125610,532.777954 670.016846,533.296204 
	C665.265015,533.566589 660.137085,532.097290 655.410645,534.846375 
	C653.988647,535.673462 651.502441,534.626038 649.499634,534.506653 
	C637.971252,533.819458 626.520203,535.864563 615.000000,535.500000 
"/>
<path fill="none" opacity="1.000000" stroke="#000000" stroke-linecap="round" stroke-linejoin="round" stroke-width="10.000000"
	d="
M734.500000,454.000000 
	C734.784912,451.636261 732.980713,452.556335 731.999207,452.532166 
	C723.000549,452.310822 713.999573,452.009766 705.000122,452.034485 
	C688.999756,452.078430 672.998779,452.258575 657.000366,452.523132 
	C643.665222,452.743591 630.334839,453.278198 616.999451,453.461945 
	C607.664673,453.590576 598.391174,454.650940 588.991028,454.178070 
	C579.531738,453.702179 569.906616,455.631622 560.526733,454.723724 
	C551.470642,453.847137 542.485474,455.331116 533.483459,454.123047 
	C530.253113,453.689514 526.832703,454.954315 523.500122,454.946899 
	C512.833130,454.923218 502.166809,454.568817 491.499939,454.553802 
	C487.833740,454.548615 484.113129,455.740875 480.508850,455.404938 
	C460.196289,453.511749 439.819855,455.241241 419.495789,454.073120 
	C411.688232,453.624359 403.828522,453.828552 396.001373,454.049225 
	C388.501038,454.260712 381.014130,453.804657 373.489532,454.357422 
	C366.018005,454.906281 358.428253,455.593201 351.011902,455.245819 
	C341.961853,454.821930 333.013397,455.858124 323.996765,455.624786 
	C311.342896,455.297333 298.660278,456.144531 286.002350,455.885620 
	C278.156372,455.725159 270.336182,455.426392 262.498993,455.986023 
	C257.322693,456.355652 252.263229,456.763092 246.953827,455.739532 
	C242.003265,454.785156 236.611526,455.420685 231.513641,456.101990 
	C224.791504,457.000427 218.197525,454.510071 211.485611,455.932098 
	C208.587982,456.546021 206.291107,454.522217 204.000000,453.000000 
"/>
<path fill="none" opacity="1.000000" stroke="#000000" stroke-linecap="round" stroke-linejoin="round" stroke-width="10.000000"
	d="
M371.000000,638.000000 
	C371.069885,635.169373 368.925812,636.014099 367.500427,636.032532 
	C359.999512,636.129639 352.497528,636.537720 345.000641,636.446960 
	C336.164551,636.340027 327.300537,636.186279 318.512146,635.369446 
	C313.121521,634.868469 310.754883,633.023621 310.325989,627.012390 
	C309.492798,615.334595 309.575287,603.673157 309.511993,591.999939 
	C309.455078,581.500244 309.378876,570.998108 309.542572,560.500671 
	C309.651794,553.497192 310.240326,546.502441 310.470184,539.499023 
	C310.592560,535.770813 312.937561,534.753784 316.001190,534.515076 
	C320.996826,534.125916 325.997223,533.614380 331.000641,533.550842 
	C338.683533,533.453369 346.348297,532.657471 354.000580,532.621826 
	C369.665344,532.548828 385.334534,533.122864 400.998627,533.550781 
	C403.160919,533.609863 405.209076,534.674133 407.503021,534.561401 
	C410.009949,534.438232 411.190186,536.342957 411.451294,538.505859 
	C411.951874,542.652405 412.466034,546.835083 412.441223,550.999634 
	C412.378662,561.499573 413.317688,572.018250 412.000000,582.500000 
"/>
<path fill="none" opacity="1.000000" stroke="#000000" stroke-linecap="round" stroke-linejoin="round" stroke-width="10.000000"
	d="
M254.000000,458.000000 
	C253.480240,461.833344 253.500809,465.620636 253.869568,469.512360 
	C254.275070,473.791473 253.445145,478.171478 253.539581,482.499146 
	C253.888763,498.498383 253.646301,514.505310 253.737320,530.501465 
	C253.794937,540.626831 253.794678,550.832642 253.183655,561.011047 
	C252.696991,569.117798 253.510681,577.389832 253.222366,585.490112 
	C252.878281,595.157715 252.726227,604.828857 252.478134,614.499451 
	C252.174484,626.335083 251.685257,638.148865 252.388977,650.006592 
	C252.822083,657.304321 252.166656,664.666687 252.000000,672.000000 
	C251.833374,679.333313 251.324158,686.678467 251.575623,693.997375 
	C252.017303,706.851440 249.650162,719.616089 250.879745,732.511475 
	C251.493500,738.947937 250.427261,745.644714 250.868179,751.974365 
	C251.542633,761.657166 250.661606,771.368347 251.927124,781.009583 
	C252.246918,783.445740 251.504715,786.001526 251.528046,788.499756 
	C251.629333,799.333679 251.813980,810.167053 252.007950,820.999878 
	C252.108963,826.640930 253.681488,828.187927 259.500122,828.497620 
	C272.166382,829.171997 284.829895,830.234070 297.501343,830.343567 
	C304.645660,830.405273 311.968170,829.798584 318.974884,830.330627 
	C330.164398,831.180420 341.342133,830.486206 352.510651,831.364807 
	C361.123993,832.042480 369.932678,830.671143 378.476624,831.695129 
	C391.149109,833.213867 403.889893,831.316284 416.518738,833.385620 
	C420.901093,834.103638 425.530182,833.832520 429.993378,833.427185 
	C437.989716,832.700928 445.992798,834.471863 454.060242,832.788757 
	C456.337738,832.313660 459.530731,834.059143 462.500275,834.035889 
	C473.832916,833.947021 485.166687,834.000000 496.500000,834.000000 
	C496.500000,833.166687 496.500000,831.833313 496.500000,830.500000 
"/>
<path fill="none" opacity="1.000000" stroke="#000000" stroke-linecap="round" stroke-linejoin="round" stroke-width="10.000000"
	d="
M416.500000,582.500000 
	C407.678925,583.316040 398.832550,582.825134 390.000702,583.030518 
	C372.998291,583.425842 355.999817,583.993958 339.000549,584.518127 
	C338.162903,584.544006 337.333344,584.833374 336.500000,585.000000 
"/>
<path fill="none" opacity="1.000000" stroke="#000000" stroke-linecap="round" stroke-linejoin="round" stroke-width="11.000000"
	d="
M813.000000,449.000000 
	C808.392395,451.962036 803.256531,451.872955 798.005737,452.121094 
	C789.331238,452.530975 780.690002,453.475708 771.998352,452.514801 
	C771.010437,452.405579 769.897217,452.221222 769.016846,452.545715 
	C763.708435,454.502289 758.308960,453.266724 753.007202,452.896515 
	C747.506042,452.512390 741.906189,454.037628 736.482239,452.048492 
	C735.948425,451.852722 735.166687,452.333374 734.500000,452.500031 
"/>
<path fill="none" opacity="1.000000" stroke="#000000" stroke-linecap="round" stroke-linejoin="round" stroke-width="9.000000"
	d="
M359.000031,584.500000 
	C359.333344,591.500000 360.525421,598.592834 359.781128,605.476318 
	C358.865021,613.948730 360.213806,622.169312 360.515930,630.499451 
	C360.570526,632.003479 360.833344,633.500000 361.000000,635.000000 
"/>
<path fill="none" opacity="1.000000" stroke="#000000" stroke-linecap="round" stroke-linejoin="round" stroke-width="11.000000"
	d="
M710.000000,832.500061 
	C704.000000,832.833374 698.002930,833.238403 691.999329,833.483704 
	C682.335144,833.878601 672.614685,833.372742 663.014587,833.815735 
	C653.353149,834.261658 643.682129,835.213257 634.001770,834.937073 
	C619.667175,834.528137 605.341309,835.585999 590.991333,834.630432 
	C582.705811,834.078735 574.212891,835.790588 566.030029,834.761475 
	C555.440918,833.429688 545.042358,835.524414 534.477417,834.858337 
	C525.269897,834.277893 515.830200,834.513733 506.497681,834.950317 
	C503.345703,835.097717 500.166656,834.666687 497.000000,834.500000 
"/>
<path fill="none" opacity="1.000000" stroke="#000000" stroke-linecap="round" stroke-linejoin="round" stroke-width="9.000000"
	d="
M359.500000,534.000000 
	C359.817474,550.500000 358.279175,567.000000 359.500000,583.500000 
"/>
<path fill="none" opacity="1.000000" stroke="#000000" stroke-linecap="round" stroke-linejoin="round" stroke-width="10.000000"
	d="
M454.500000,726.750000 
	C455.992584,727.067322 457.205750,727.273926 457.059723,729.503906 
	C455.980652,745.983887 456.184814,762.495850 455.945129,778.999207 
	C455.688477,796.669434 455.000000,814.333313 454.500000,832.000000 
"/>
<path fill="none" opacity="1.000000" stroke="#000000" stroke-linecap="round" stroke-linejoin="round" stroke-width="10.000000"
	d="
M761.500000,711.000000 
	C761.000000,731.333313 759.888306,751.675781 760.189758,771.997192 
	C760.439880,788.857544 759.122009,805.659180 759.468018,822.500671 
	C759.619202,829.858276 757.425659,831.801880 750.000610,832.021606 
	C738.833923,832.351990 727.641846,831.379700 716.482971,832.872498 
	C714.598572,833.124573 711.453979,834.804688 710.500000,831.000000 
"/>
<path fill="none" opacity="1.000000" stroke="#000000" stroke-linecap="round" stroke-linejoin="round" stroke-width="10.000000"
	d="
M655.500000,588.000000 
	C655.666687,604.500000 655.833313,621.000000 656.000000,637.500000 
"/>
<path fill="none" opacity="1.000000" stroke="#000000" stroke-linecap="round" stroke-linejoin="round" stroke-width="9.000000"
	d="
M654.499939,536.000000 
	C654.833313,553.000000 655.166626,570.000000 655.499939,587.000000 
"/>
<path fill="none" opacity="1.000000" stroke="#000000" stroke-linecap="round" stroke-linejoin="round" stroke-width="10.000000"
	d="
M411.500000,583.500000 
	C413.788696,587.510254 412.525208,591.801758 412.507019,596.000000 
	C412.464447,605.843872 412.651489,615.685974 411.535950,625.504089 
	C410.745148,632.463928 410.413605,633.210022 403.494690,633.950439 
	C394.862640,634.874084 386.219543,635.904968 377.499786,635.504395 
	C375.271973,635.402039 373.052612,635.425354 371.000000,636.500000 
"/>
<path fill="none" opacity="1.000000" stroke="#000000" stroke-linecap="round" stroke-linejoin="round" stroke-width="10.000000"
	d="
M704.500000,586.000000 
	C703.000000,586.166687 701.478333,586.585876 700.003540,586.459106 
	C690.144897,585.612122 680.353271,587.218689 670.501587,587.276184 
	C654.839111,587.367554 639.166565,587.321899 623.499878,587.488892 
	C617.167297,587.556458 610.833313,587.500000 604.500000,587.500000 
"/>
<path fill="none" opacity="1.000000" stroke="#000000" stroke-linecap="round" stroke-linejoin="round" stroke-width="9.000000"
	d="
M336.500000,588.500000 
	C336.500000,587.500000 336.500000,586.500000 336.500000,585.500000 
	C328.000000,585.500000 319.500000,585.500000 311.000000,585.500000 
"/>
</svg>